<?xml version="1.0" encoding="UTF-8" standalone="no"?>
<svg width="43px" height="34px" viewBox="0 0 43 34" version="1.1" xmlns="http://www.w3.org/2000/svg" xmlns:xlink="http://www.w3.org/1999/xlink">
    <!-- Generator: Sketch 46.2 (44496) - http://www.bohemiancoding.com/sketch -->
    <title>Group 3</title>
    <desc>Created with Sketch.</desc>
    <defs></defs>
    <g id="Page-1" stroke="none" stroke-width="1" fill="none" fill-rule="evenodd">
        <g id="Artboard-2" transform="translate(-179.000000, -553.000000)">
            <g id="Group-3" transform="translate(179.000000, 553.000000)">
                <rect id="Rectangle" fill="#FFFFFF" x="1" y="1" width="40" height="31" rx="2"></rect>
                <path d="M37.7506504,0 L5.25822164,0 C2.35774743,0 0,2.44590882 0,5.45483816 L0,28.4925303 C0,31.5014596 2.35774743,33.9473684 5.25822164,33.9473684 L37.7417533,33.9473684 C40.6422275,33.9473684 42.9999749,31.5014596 42.9999749,28.4925303 L42.9999749,5.464068 C43.0088721,2.45513866 40.6511246,0 37.7506504,0 Z M40.6066388,28.4925303 C40.6066388,30.1262128 39.3254478,31.4553104 37.7506504,31.4553104 L5.25822164,31.4553104 C3.68342429,31.4553104 2.40223323,30.1262128 2.40223323,28.4925303 L2.40223323,5.464068 C2.40223323,3.83038551 3.68342429,2.50128789 5.25822164,2.50128789 L37.7417533,2.50128789 C39.3165506,2.50128789 40.5977417,3.83038551 40.5977417,5.464068 L40.5977417,28.4925303 L40.6066388,28.4925303 Z M27.5064492,17.4304187 L38.0549674,7.4968002 C38.5458037,7.02823329 38.5904252,6.23166955 38.1442104,5.70687461 C37.6979956,5.19145101 36.9394304,5.14459432 36.4396698,5.61316123 L21.8930669,19.323429 L19.0551407,16.6619689 C19.0462164,16.6525976 19.0372921,16.6432263 19.0372921,16.6338549 C18.974822,16.5682556 18.9123519,16.5120275 18.8409575,16.4557995 L7.29291817,5.60378989 C6.79315758,5.13522298 6.0345924,5.18207967 5.58837758,5.70687461 C5.14216277,6.23166955 5.18678425,7.02823329 5.68654484,7.4968002 L16.3600032,17.5147607 L5.73116632,27.9638028 C5.24925432,28.441741 5.22248144,29.2383048 5.67762055,29.7537284 C5.91857655,30.0161258 6.23985121,30.1566959 6.56112588,30.1566959 C6.85562765,30.1566959 7.15012943,30.0442399 7.38216113,29.8193277 L18.1716353,19.2203443 L21.0988045,21.9661464 C21.3308362,22.1816871 21.6164137,22.2847718 21.9019912,22.2847718 C22.1875687,22.2847718 22.4820704,22.1723158 22.7051778,21.956775 L25.7126657,19.1266309 L36.4396698,29.8286991 C36.6717015,30.0629825 36.9751276,30.1754386 37.2696294,30.1754386 C37.590904,30.1754386 37.9032544,30.0442399 38.1442104,29.7818424 C38.5993495,29.2757901 38.5815009,28.469855 38.0995889,27.9919168 L27.5064492,17.4304187 Z" id="Combined-Shape" fill="#444444" fill-rule="nonzero"></path>
            </g>
        </g>
    </g>
</svg>