<?xml version="1.0" encoding="UTF-8" standalone="no"?>
<svg width="135px" height="46px" viewBox="0 0 135 46" version="1.1" xmlns="http://www.w3.org/2000/svg" xmlns:xlink="http://www.w3.org/1999/xlink">
    <!-- Generator: Sketch 46.2 (44496) - http://www.bohemiancoding.com/sketch -->
    <title>Group</title>
    <desc>Created with Sketch.</desc>
    <defs></defs>
    <g id="Page-1" stroke="none" stroke-width="1" fill="none" fill-rule="evenodd">
        <g id="Landing-Page-Copy-10" transform="translate(-65.000000, -53.000000)" fill-rule="nonzero" fill="#E6B771">
            <g id="Group" transform="translate(65.000000, 53.000000)">
                <path d="M101.485054,22.8979592 L95.9678511,22.8979592 L95.9678511,19.7959184 L101.979131,19.7959184 L101.979131,18 L93.7445008,18 L93.7445008,30 L101.979131,30 L101.979131,28.2040816 L95.9678511,28.2040816 L95.9678511,24.7346939 L101.485054,24.7346939 L101.485054,22.8979592 L101.485054,22.8979592 Z M76.9870276,18 L76.9870276,30 L79.2103779,30 L79.2103779,25.8367347 L81.392555,25.8367347 L84.3158488,30 L86.9509306,30 L83.6570784,25.6326531 C84.5628878,25.3877551 85.2216582,24.9387755 85.6745629,24.2857143 C86.1274676,23.6326531 86.3745065,22.8163265 86.4156796,21.9183673 C86.4156796,21.1428571 86.250987,20.4897959 85.9216018,19.9183673 C85.5922166,19.3469388 85.0981387,18.8571429 84.4805415,18.5306122 C83.8629442,18.2040816 83.1218274,18 82.2571912,18 L76.9870276,18 L76.9870276,18 Z M81.9689791,19.755102 C82.6689227,19.755102 83.2041737,19.9591837 83.5747321,20.3673469 C83.9452905,20.7346939 84.1511562,21.2653061 84.1511562,21.9591837 C84.1511562,22.6122449 83.9452905,23.1428571 83.5747321,23.5102041 C83.2041737,23.877551 82.6689227,24.0816327 81.9689791,24.0816327 L79.1692047,24.0816327 L79.1692047,19.7142857 L81.9689791,19.755102 L81.9689791,19.755102 Z M69.9464185,19.7959184 L69.9464185,18 L62,18 L62,30 L64.2233503,30 L64.2233503,24.9387755 L69.4523407,24.9387755 L69.4523407,23.1020408 L64.2233503,23.1020408 L64.2233503,19.7959184 L69.9464185,19.7959184 L69.9464185,19.7959184 Z M117.542583,19.7959184 L117.542583,18 L109.307953,18 L109.307953,30 L117.542583,30 L117.542583,28.2040816 L111.531303,28.2040816 L111.531303,24.7346939 L117.007332,24.7346939 L117.007332,22.8979592 L111.531303,22.8979592 L111.531303,19.7959184 L117.542583,19.7959184 L117.542583,19.7959184 Z M132.117879,18.7755102 C131.170897,18.2857143 130.059222,18 128.741681,18 L124.583192,18 L124.583192,30 L128.741681,30 C130.059222,30 131.21207,29.7142857 132.159052,29.2244898 C133.064862,28.7346939 133.764805,28.0408163 134.258883,27.1428571 C134.752961,26.244898 135,25.1836735 135,24 C135,22.8163265 134.752961,21.7959184 134.258883,20.8571429 C133.723632,20 133.023689,19.3061224 132.117879,18.7755102 L132.117879,18.7755102 Z M128.741681,19.7959184 C130.018049,19.7959184 131.047377,20.1632653 131.747321,20.8979592 C132.447265,21.6326531 132.77665,22.6530612 132.77665,23.9591837 C132.77665,25.3061224 132.406091,26.3265306 131.747321,27.0612245 C131.047377,27.7959184 130.059222,28.1632653 128.741681,28.1632653 L126.765369,28.1632653 L126.765369,19.7959184 L128.741681,19.7959184 L128.741681,19.7959184 Z" id="Shape"></path>
                <path d="M46,22.3143631 C45.9688558,20.7872629 45.7819905,19.3224932 45.4705484,17.9200542 C44.972241,15.5203252 44.0690589,13.3075881 42.8232905,11.2195122 C41.8578199,9.6300813 40.6743399,8.13414634 39.2728504,6.73170732 C34.788084,2.24390244 29.3689912,0 23.0155721,0 C16.662153,0 11.2430603,2.24390244 6.75829384,6.73170732 C5.35680433,8.13414634 4.17332431,9.6300813 3.20785376,11.2195122 C1.9309411,13.3075881 1.05890318,15.5514905 0.529451591,17.9200542 C0.218009479,19.3848238 0.0622884225,20.9119241 0,22.501355 L0,23.4674797 C0.0311442112,24.9634146 0.186865267,26.4281843 0.467163169,27.8306233 C0.965470548,30.2926829 1.86865267,32.6300813 3.17670955,34.7493225 C4.14218009,36.3387534 5.32566012,37.8346883 6.72714963,39.2371274 C11.211916,43.7249322 16.6310088,46 22.9844279,46 C29.337847,46 34.7569397,43.7560976 39.2417062,39.2371274 C40.6431957,37.8346883 41.8266757,36.3387534 42.7921462,34.7493225 C44.1002031,32.598916 45.0033852,30.2926829 45.5016926,27.8306233 C45.7819905,26.4593496 45.9377116,25.0569106 45.9688558,23.6233062 C45.9688558,23.4051491 45.9688558,23.1869919 45.9688558,23 C46,22.7506775 46,22.5325203 46,22.3143631 L46,22.3143631 Z M33.2308734,12.5284553 C33.2620176,12.5596206 33.2620176,12.6219512 33.2620176,12.6842818 L33.2620176,17.7330623 C33.2620176,17.795393 33.2620176,17.8265583 33.2308734,17.8577236 C33.1997292,17.8888889 33.1374408,17.9200542 33.0751523,17.9200542 L27.9986459,17.9200542 C27.9363575,17.9200542 27.9052133,17.8888889 27.8740691,17.8577236 C27.8117806,17.8265583 27.8117806,17.795393 27.8117806,17.7330623 L27.8117806,12.6842818 C27.8117806,12.6219512 27.8429248,12.5907859 27.8740691,12.5284553 C27.9052133,12.49729 27.9363575,12.4661247 27.9986459,12.4661247 L33.0440081,12.4661247 C33.1374408,12.4661247 33.1997292,12.4661247 33.2308734,12.5284553 L33.2308734,12.5284553 Z M39.8957346,22.8441734 C39.8957346,22.4701897 40.0514557,22.1273713 40.3317536,21.8157182 L40.3317536,21.8157182 C40.6120515,21.5352304 40.9546378,21.3794038 41.3906567,21.3794038 C41.7955315,21.3794038 42.1381178,21.5352304 42.4184157,21.8157182 C42.6987136,22.096206 42.8232905,22.4390244 42.8232905,22.8441734 C42.8232905,23.2493225 42.6675694,23.6233062 42.4184157,23.903794 C42.1381178,24.1842818 41.7955315,24.3089431 41.3906567,24.3401084 C40.985782,24.3401084 40.6120515,24.1842818 40.3317536,23.903794 C40.0514557,23.6233062 39.8957346,23.2804878 39.8957346,22.8441734 L39.8957346,22.8441734 Z M41.7020988,17.9200542 L39.7711578,17.9200542 C38.9614083,15.2086721 37.4976303,12.7777778 35.3486798,10.6273713 C31.9228165,7.2303523 27.8117806,5.51626016 22.9844279,5.51626016 C18.1570752,5.51626016 14.0460393,7.2303523 10.6513202,10.6273713 C8.50236967,12.7777778 7.03859174,15.2086721 6.22884225,17.9200542 L4.29790115,17.9200542 C5.13879485,14.7100271 6.82058226,11.8116531 9.34326337,9.31842818 C13.1117129,5.54742547 17.689912,3.64634146 23.0155721,3.64634146 C28.3723764,3.64634146 32.9194313,5.54742547 36.6878808,9.31842818 C39.2105619,11.8116531 40.8612051,14.6788618 41.7020988,17.9200542 L41.7020988,17.9200542 Z M39.8334462,27.799458 L41.7643873,27.799458 C40.9546378,31.102981 39.2417062,34.0325203 36.6878808,36.6192412 C32.9194313,40.3902439 28.3412322,42.2913279 23.0155721,42.2913279 C17.689912,42.2913279 13.1428571,40.3902439 9.34326337,36.6192412 C6.75829384,34.0325203 5.04536222,31.0718157 4.23561273,27.799458 L6.16655383,27.799458 C6.94515911,30.604336 8.44008125,33.097561 10.6513202,35.3102981 C14.0460393,38.7384824 18.1882194,40.4214092 22.9844279,40.4214092 C27.8117806,40.4214092 31.9228165,38.7073171 35.3486798,35.3102981 C37.5599188,33.1287263 39.0548409,30.604336 39.8334462,27.799458 L39.8334462,27.799458 Z M20.2125931,12.5284553 C20.2437373,12.49729 20.2748815,12.4661247 20.3371699,12.4661247 L25.4136764,12.4661247 C25.4759648,12.4661247 25.507109,12.49729 25.5693974,12.5284553 C25.6005416,12.5596206 25.6316858,12.6219512 25.6316858,12.6842818 L25.6316858,17.7330623 C25.6316858,17.795393 25.6005416,17.8265583 25.5693974,17.8577236 C25.507109,17.8888889 25.4759648,17.9200542 25.4448206,17.9200542 L20.3683142,17.9200542 C20.3060257,17.9200542 20.2748815,17.8888889 20.2437373,17.8577236 C20.2125931,17.8265583 20.1814489,17.795393 20.1814489,17.7330623 L20.1814489,12.6842818 C20.1814489,12.5907859 20.1814489,12.5596206 20.2125931,12.5284553 L20.2125931,12.5284553 Z M17.7522004,12.4661247 C17.8144888,12.4661247 17.845633,12.49729 17.9079215,12.5284553 C17.9390657,12.5596206 17.9702099,12.6219512 17.9702099,12.6842818 L17.9702099,17.7330623 C17.9702099,17.795393 17.9702099,17.8265583 17.9079215,17.8577236 C17.845633,17.8888889 17.8144888,17.9200542 17.7833446,17.9200542 L12.7068382,17.9200542 C12.6445498,17.9200542 12.6134056,17.8888889 12.5822613,17.8577236 C12.5511171,17.8265583 12.5199729,17.795393 12.5199729,17.7330623 L12.5199729,12.6842818 C12.5199729,12.6219512 12.5511171,12.5907859 12.5822613,12.5284553 C12.6134056,12.49729 12.6445498,12.4661247 12.7068382,12.4661247 L17.7522004,12.4661247 L17.7522004,12.4661247 Z M17.8767773,20.195122 C17.9079215,20.2262873 17.9390657,20.2574526 17.9390657,20.3197832 L17.9390657,25.3685637 C17.9390657,25.4308943 17.9390657,25.4620596 17.8767773,25.5243902 C17.8144888,25.5555556 17.7833446,25.5867209 17.7210562,25.5867209 L12.6445498,25.5867209 C12.5822613,25.5867209 12.5511171,25.5555556 12.5199729,25.5243902 C12.4888287,25.4932249 12.4576845,25.4308943 12.4576845,25.3685637 L12.4576845,20.3197832 C12.4576845,20.2574526 12.4888287,20.2262873 12.5199729,20.195122 C12.5511171,20.1327913 12.5822613,20.1327913 12.6445498,20.1327913 L17.7210562,20.1327913 C17.8144888,20.1327913 17.845633,20.1639566 17.8767773,20.195122 L17.8767773,20.195122 Z M22.8909953,19.6653117 C22.9532837,19.6653117 22.9844279,19.696477 23.0155721,19.7276423 L26.0054164,22.7195122 C26.0365606,22.7506775 26.0677048,22.8130081 26.0677048,22.8441734 C26.0677048,22.9065041 26.0365606,22.9376694 26.0054164,23 L23.0155721,25.9918699 C22.9844279,26.0230352 22.9221395,26.0230352 22.8909953,26.0230352 C22.8287068,26.0230352 22.7975626,26.0230352 22.7664184,25.9918699 L19.7765741,23 C19.7454299,22.9688347 19.7142857,22.9065041 19.7142857,22.8441734 C19.7142857,22.8130081 19.7454299,22.7506775 19.7765741,22.7195122 L22.7664184,19.7276423 C22.7975626,19.696477 22.8287068,19.6653117 22.8909953,19.6653117 L22.8909953,19.6653117 Z M28.4658091,20.7872629 C29.0575491,20.195122 29.7427217,19.9146341 30.5836154,19.9146341 C31.3933649,19.9146341 32.1096818,20.195122 32.6702776,20.7872629 C33.2620176,21.3794038 33.5423155,22.0650407 33.5423155,22.8753388 C33.5423155,23.6856369 33.2620176,24.402439 32.6702776,24.9945799 C32.1096818,25.5555556 31.3933649,25.8360434 30.5836154,25.8360434 C29.7738659,25.8360434 29.0575491,25.5555556 28.4658091,24.9945799 C27.9052133,24.402439 27.6249154,23.7168022 27.6249154,22.8753388 C27.6249154,22.0650407 27.9052133,21.3482385 28.4658091,20.7872629 L28.4658091,20.7872629 Z M3.17670955,22.8441734 C3.17670955,22.4390244 3.30128639,22.096206 3.58158429,21.8157182 C3.86188219,21.5352304 4.20446852,21.3794038 4.60934326,21.3794038 C5.01421801,21.3794038 5.38794854,21.5352304 5.66824645,21.8157182 L5.66824645,21.8157182 C5.94854435,22.096206 6.1042654,22.4390244 6.1042654,22.8441734 C6.1042654,23.2493225 5.94854435,23.6233062 5.66824645,23.903794 C5.38794854,24.1842818 5.04536222,24.3089431 4.60934326,24.3401084 C4.20446852,24.3401084 3.86188219,24.1842818 3.58158429,23.903794 C3.3324306,23.6233062 3.17670955,23.2804878 3.17670955,22.8441734 L3.17670955,22.8441734 Z M12.4888287,33.0663957 L12.4888287,28.0176152 C12.4888287,27.9552846 12.4888287,27.9241192 12.5199729,27.8617886 C12.5511171,27.8306233 12.6134056,27.8306233 12.6445498,27.8306233 L17.7210562,27.8306233 C17.7522004,27.8306233 17.7833446,27.8306233 17.845633,27.8617886 C17.8767773,27.9241192 17.9079215,27.9552846 17.9079215,28.0176152 L17.9079215,33.0663957 C17.9079215,33.1287263 17.8767773,33.1598916 17.845633,33.1910569 C17.8144888,33.2533875 17.7522004,33.2533875 17.7210562,33.2533875 L12.6445498,33.2533875 C12.5822613,33.2533875 12.5511171,33.2222222 12.5199729,33.1910569 C12.5199729,33.1598916 12.4888287,33.1287263 12.4888287,33.0663957 L12.4888287,33.0663957 Z M28.4658091,28.4539295 C28.746107,28.1734417 29.0575491,27.9552846 29.4001354,27.8306233 C29.7427217,27.6747967 30.1475965,27.5813008 30.5836154,27.5813008 C31.0196344,27.5813008 31.3933649,27.6747967 31.7670955,27.8306233 C32.0785376,27.9552846 32.3899797,28.1734417 32.6702776,28.4539295 C33.2620176,29.0460705 33.5423155,29.7317073 33.5423155,30.5420054 C33.5423155,31.3523035 33.2620176,32.0691057 32.6702776,32.6300813 L32.6702776,32.6300813 C32.1096818,33.1910569 31.3933649,33.4715447 30.5836154,33.4715447 C29.7738659,33.4715447 29.0575491,33.1910569 28.4658091,32.6300813 L28.4658091,32.6300813 C27.9052133,32.0379404 27.6249154,31.3523035 27.6249154,30.5420054 C27.6249154,29.7317073 27.9052133,29.0149051 28.4658091,28.4539295 L28.4658091,28.4539295 Z M24.0744753,27.799458 C24.3859174,27.9241192 24.6973595,28.1422764 24.9776574,28.4227642 C25.5693974,29.0149051 25.8496953,29.700542 25.8496953,30.5108401 C25.8496953,31.3211382 25.5693974,32.0379404 24.9776574,32.598916 L24.9776574,32.598916 C24.4170616,33.1598916 23.731889,33.4403794 22.8909953,33.4403794 C22.0501016,33.4403794 21.3649289,33.1598916 20.7731889,32.598916 L20.7731889,32.598916 C20.2125931,32.0067751 19.9322952,31.3211382 19.9322952,30.5108401 C19.9322952,29.700542 20.2125931,29.0149051 20.7731889,28.4227642 C21.0534868,28.1422764 21.3649289,27.9241192 21.7075152,27.799458 C22.0812458,27.6436314 22.4549763,27.5501355 22.8909953,27.5501355 C23.3270142,27.5813008 23.731889,27.6747967 24.0744753,27.799458 L24.0744753,27.799458 Z M23.9187542,31.5704607 C24.2301963,31.2899729 24.3547732,30.9471545 24.3547732,30.5420054 C24.3547732,30.1368564 24.1990521,29.7940379 23.9187542,29.5135501 C23.6384563,29.201897 23.29587,29.0772358 22.8909953,29.0772358 C22.4861205,29.0772358 22.1435342,29.2330623 21.8320921,29.5135501 C21.5517942,29.7940379 21.4272173,30.1368564 21.4272173,30.5420054 C21.4272173,30.9471545 21.5829384,31.2899729 21.8320921,31.5704607 C22.11239,31.8509485 22.4861205,32.0067751 22.8909953,32.0067751 C23.29587,32.0067751 23.6384563,31.8821138 23.9187542,31.5704607 L23.9187542,31.5704607 Z M31.5802302,31.5704607 C31.8605281,31.2899729 32.0162492,30.9471545 32.0162492,30.5420054 C32.0162492,30.1368564 31.8605281,29.7940379 31.5802302,29.5135501 C31.2999323,29.201897 30.957346,29.0772358 30.5524712,29.0772358 C30.1475965,29.0772358 29.8050102,29.2330623 29.493568,29.5135501 C29.2132701,29.7940379 29.0575491,30.1368564 29.0575491,30.5420054 C29.0575491,30.9471545 29.2132701,31.2899729 29.493568,31.5704607 C29.7738659,31.8509485 30.1475965,32.0067751 30.5524712,32.0067751 C30.957346,32.0067751 31.2999323,31.8821138 31.5802302,31.5704607 L31.5802302,31.5704607 Z M31.9851049,22.8441734 C31.9851049,22.4390244 31.8293839,22.096206 31.5802302,21.8157182 C31.2999323,21.5352304 30.957346,21.3794038 30.5524712,21.3794038 C30.1475965,21.3794038 29.8050102,21.5352304 29.493568,21.8157182 L29.493568,21.8157182 C29.2132701,22.096206 29.0575491,22.4390244 29.0575491,22.8441734 C29.0575491,23.2493225 29.2132701,23.6233062 29.493568,23.903794 C29.7738659,24.1842818 30.1475965,24.3089431 30.5524712,24.3401084 C30.957346,24.3401084 31.2999323,24.1842818 31.5802302,23.903794 C31.8605281,23.6233062 31.9851049,23.2804878 31.9851049,22.8441734 Z" id="Shape"></path>
            </g>
        </g>
    </g>
</svg>