<?xml version="1.0" encoding="UTF-8" standalone="no"?>
<svg width="15px" height="13px" viewBox="0 0 15 13" version="1.1" xmlns="http://www.w3.org/2000/svg" xmlns:xlink="http://www.w3.org/1999/xlink">
    <!-- Generator: Sketch 46.2 (44496) - http://www.bohemiancoding.com/sketch -->
    <title>Shape</title>
    <desc>Created with Sketch.</desc>
    <defs></defs>
    <g id="Page-1" stroke="none" stroke-width="1" fill="none" fill-rule="evenodd">
        <g id="Artboard-2" transform="translate(-276.000000, -725.000000)" fill-rule="nonzero" fill="#FFFFFF">
            <g id="Group-2" transform="translate(86.000000, 711.000000)">
                <path d="M204.156829,19.1232061 L204.180244,19.128399 L194.142929,19.128399 L197.298294,15.9222532 C197.452807,15.7657232 197.537563,15.5536782 197.537563,15.3311236 C197.537563,15.108569 197.452807,14.8980077 197.298294,14.7411067 L196.807319,14.243079 C196.652929,14.086549 196.447197,14 196.227807,14 C196.008295,14 195.802441,14.0859308 195.648051,14.2424608 L190.23915,19.7258344 C190.08415,19.8829827 189.999394,20.0923076 190.000003,20.3149858 C189.999394,20.5389004 190.08415,20.748349 190.23915,20.90525 L195.648051,26.3891181 C195.802441,26.5455245 196.008173,26.6315789 196.227807,26.6315789 C196.447197,26.6315789 196.652929,26.5454009 196.807319,26.3891181 L197.298294,25.8910905 C197.452807,25.7348077 197.537563,25.526101 197.537563,25.3035464 C197.537563,25.0811155 197.452807,24.8834128 197.298294,24.7270064 L194.107319,21.5029326 L204.168049,21.5029326 C204.620122,21.5029326 205,21.1078983 205,20.6498068 L205,19.9454216 C205,19.4873301 204.608903,19.1232061 204.156829,19.1232061 Z" id="Shape" transform="translate(197.500000, 20.315789) scale(-1, 1) translate(-197.500000, -20.315789) "></path>
            </g>
        </g>
    </g>
</svg>