<?xml version="1.0" encoding="UTF-8" standalone="no"?>
<svg width="48px" height="48px" viewBox="0 0 48 48" version="1.1" xmlns="http://www.w3.org/2000/svg" xmlns:xlink="http://www.w3.org/1999/xlink">
    <!-- Generator: Sketch 46.2 (44496) - http://www.bohemiancoding.com/sketch -->
    <title>Group 60</title>
    <desc>Created with Sketch.</desc>
    <defs></defs>
    <g id="Page-1" stroke="none" stroke-width="1" fill="none" fill-rule="evenodd">
        <g id="Landing-Page-Copy-10" transform="translate(-1494.000000, -759.000000)">
            <g id="Group-60" transform="translate(1494.000000, 759.000000)">
                <rect id="Rectangle-8" fill="#E6B771" x="0" y="0" width="48" height="48"></rect>
                <g id="001-left-arrow" transform="translate(24.000000, 24.400000) rotate(-270.000000) translate(-24.000000, -24.400000) translate(14.000000, 16.000000)" fill-rule="nonzero" fill="#000000">
                    <path d="M18.8757726,6.81386412 L18.9069921,6.82077073 L5.52390559,6.82077073 L9.73105915,2.55659681 C9.93707536,2.34841185 10.0500835,2.06639194 10.0500835,1.77039437 C10.0500835,1.4743968 9.93707536,1.19435021 9.73105915,0.985671916 L9.07642514,0.323295126 C8.87057153,0.115110167 8.59626265,0 8.30374239,0 C8.01105952,0 7.73658804,0.114287952 7.53073442,0.322472911 L0.318866075,7.61535977 C0.112199454,7.82436694 -0.000808651634,8.1027691 4.35631867e-06,8.39893112 C-0.000808651634,8.69673757 0.112199454,8.97530417 0.318866075,9.18398246 L7.53073442,16.4775271 C7.73658804,16.6855476 8.01089692,16.8 8.30374239,16.8 C8.59626265,16.8 8.87057153,16.6853832 9.07642514,16.4775271 L9.73105915,15.8151503 C9.93707536,15.6072942 10.0500835,15.3297143 10.0500835,15.0337167 C10.0500835,14.7378836 9.93707536,14.4749391 9.73105915,14.2669186 L5.47642593,9.97890038 L18.8907319,9.97890038 C19.493496,9.97890038 20,9.45350469 20,8.84424302 L20,7.90741071 C20,7.29814904 19.4785367,6.81386412 18.8757726,6.81386412 Z" id="Shape"></path>
                </g>
            </g>
        </g>
    </g>
</svg>